<?xml version="1.0" standalone="no"?>
<!DOCTYPE svg PUBLIC "-//W3C//DTD SVG 20010904//EN" "http://www.w3.org/TR/2001/REC-SVG-20010904/DTD/svg10.dtd">
<svg version="1.0" xmlns="http://www.w3.org/2000/svg"
    width="128.000000pt" height="128.000000pt" viewBox="0 0 128.000000 128.000000"
    preserveAspectRatio="xMidYMid meet">

    <g transform="translate(0.000000,128.000000) scale(0.100000,-0.100000)"
        fill="#ffffff" stroke="none">
        <path
            d="M632 1270 c-56 -13 -58 -22 -19 -93 l35 -64 -25 -19 c-25 -19 -33
-52 -20 -89 5 -15 0 -25 -24 -40 -75 -48 -159 -207 -159 -299 0 -28 -5 -34
-49 -54 -27 -12 -71 -42 -98 -66 -40 -36 -52 -42 -67 -34 -15 9 -33 -4 -112
-83 -52 -52 -94 -98 -94 -103 0 -12 288 -304 314 -318 16 -9 32 4 112 83 67
66 92 99 88 111 -5 15 12 17 199 20 l204 3 74 67 c41 36 122 113 182 170 100
96 107 106 107 141 0 29 -7 46 -29 68 -37 37 -77 38 -136 3 l-44 -25 -6 38
c-18 105 -67 197 -141 262 -40 35 -43 41 -37 75 5 31 2 41 -21 65 l-27 29 30
54 c42 73 40 83 -13 97 -50 12 -174 13 -224 1z m192 -46 c13 -5 11 -13 -12
-55 -26 -46 -29 -49 -69 -49 -39 0 -43 3 -67 46 -14 25 -23 50 -20 55 6 10
143 12 168 3z m-3 -164 c18 -10 27 -40 12 -40 -84 -5 -176 -1 -184 7 -7 7 -5
15 6 27 19 19 134 23 166 6z m41 -126 c85 -59 141 -158 154 -269 l6 -51 -63
-42 c-58 -38 -65 -40 -81 -25 -9 8 -38 18 -63 20 -49 6 -56 19 -25 45 47 41
29 110 -33 126 -22 6 -32 14 -32 28 0 20 23 24 57 9 28 -11 36 24 11 45 -12 9
-23 28 -25 41 -4 30 -41 34 -47 4 -2 -11 -14 -30 -27 -42 -32 -30 -32 -76 1
-108 13 -14 33 -25 44 -25 28 0 36 -19 17 -38 -14 -14 -17 -14 -35 2 -22 20
-51 15 -51 -8 0 -8 11 -23 25 -34 47 -37 25 -58 -23 -23 -38 27 -116 51 -164
51 l-41 0 6 49 c12 101 87 214 174 261 59 31 158 24 215 -16z m356 -296 c30
-30 12 -55 -155 -212 l-168 -156 -220 0 -220 0 -99 99 -98 98 53 46 c99 87
203 100 315 42 57 -30 77 -35 135 -35 56 0 73 -4 89 -20 22 -22 25 -37 10 -60
-7 -11 -37 -16 -122 -20 -105 -5 -113 -6 -113 -25 0 -19 8 -20 105 -23 61 -2
115 2 131 9 26 10 53 51 61 92 4 22 234 176 264 176 11 1 25 -4 32 -11z m-893
-318 l130 -130 -63 -62 -62 -63 -132 132 -133 133 60 60 c33 33 62 60 65 60 3
0 64 -59 135 -130z" />
        <path d="M524 405 c-7 -18 3 -35 21 -35 21 0 28 19 15 35 -16 19 -29 19 -36 0z" />
    </g>
</svg>